<svg xmlns="http://www.w3.org/2000/svg" viewBox="0 0 496 208"><title>AkariFoundation</title><path d="M75.12354,44.208q3.45264,10.78345,6.833,21.80029,3.38232,11.01563,6.61768,23.11426,3.23657,12.09595,6.47314,25.63428Q98.28394,128.29419,101.55176,144h-12.96q-1.11987-6.48633-2.32861-12.82031-1.2085-6.33179-2.48633-12.66748H52.293q-1.44507,6.33472-2.60107,12.66943Q48.5376,137.51636,47.4082,144H34.87988q3.17944-15.69067,6.50244-29.22314,3.32153-13.53369,6.57471-25.625,3.24976-12.093,6.64648-23.10742Q57.999,55.03174,61.48193,44.208ZM68.07178,58.896q-3.50317,11.99487-6.82617,24.0752-3.32446,12.082-6.3584,24.74072H81.02539q-2.87256-12.6665-6.17432-24.75879Q71.55078,70.86011,68.07178,58.896Z" style="fill:#222"/><path d="M162.46289,68.3999q-6.05493,10.35791-11.60107,18.916Q145.313,95.875,139.83887,103.35156q3.4563,4.03638,7.06055,9.08105,3.60132,5.04565,6.9165,10.45117,3.31421,5.40674,6.19434,10.811,2.88208,5.40747,4.90039,10.30518H151.38379q-2.15991-4.75928-5.04248-9.9541-2.88208-5.19434-6.05029-10.17236-3.16919-4.97754-6.33789-9.44971a83.10023,83.10023,0,0,0-5.90625-7.50391V144H115.6626V34.416l12.38428-2.16016v68.61621q2.57153-3.44971,5.50342-7.7583,2.929-4.30957,5.7915-8.69141,2.85864-4.38062,5.43115-8.55029,2.57227-4.16455,4.291-7.47217Z" style="fill:#222"/><path d="M178.30078,69.98389a46.38164,46.38164,0,0,1,7.92041-2.52,41.50858,41.50858,0,0,1,9.07178-.936q10.07813,0,16.416,6.26416,6.33472,6.26367,6.33594,19.51221V142.416a96.26122,96.26122,0,0,1-10.584,2.30371,66.91428,66.91428,0,0,1-10.584.86426,35.226,35.226,0,0,1-9.71973-1.2959,20.31974,20.31974,0,0,1-13.32031-11.44824,25.599,25.599,0,0,1-2.01611-10.728,27.00914,27.00914,0,0,1,1.80029-10.2959,20.48494,20.48494,0,0,1,4.96777-7.34375,21.03544,21.03544,0,0,1,7.48828-4.46436,28.14373,28.14373,0,0,1,9.35986-1.51172,54.06142,54.06142,0,0,1,10.51221,1.15186V92.73584q0-8.34961-3.24023-11.66406-3.24023-3.31055-9.28809-3.312a29.12814,29.12814,0,0,0-6.26367.64844,34.24922,34.24922,0,0,0-6.26416,2.08789Zm5.9043,51.98389q0,6.62549,3.45605,9.792,3.45557,3.16919,9.792,3.16846a39.9305,39.9305,0,0,0,8.49609-1.0083V109.87207a32.92909,32.92909,0,0,0-8.49609-1.15186,20.17137,20.17137,0,0,0-5.18408.64795,10.78287,10.78287,0,0,0-4.248,2.15967,9.96587,9.96587,0,0,0-2.80811,4.03223A17.40181,17.40181,0,0,0,184.20508,121.96777Z" style="fill:#222"/><path d="M272.33105,79.63184a25.63316,25.63316,0,0,0-10.36816-2.01562,26.17306,26.17306,0,0,0-9.93555,1.87158V144H239.64307V71.71191a50.78543,50.78543,0,0,1,9.57617-3.38379A48.38638,48.38638,0,0,1,261.09912,66.96a55.65937,55.65937,0,0,1,6.91211.43213,27.88883,27.88883,0,0,1,6.48,1.584Z" style="fill:#222"/><path d="M293.06543,55.00781a8.0072,8.0072,0,0,1-5.688-2.23193,7.806,7.806,0,0,1-2.376-5.97607,7.81141,7.81141,0,0,1,2.376-5.97559,8.36242,8.36242,0,0,1,11.376,0,7.81141,7.81141,0,0,1,2.376,5.97559,7.806,7.806,0,0,1-2.376,5.97607A8.01049,8.01049,0,0,1,293.06543,55.00781ZM299.25781,144H286.87354V68.3999h12.38428Z" style="fill:#222"/><rect x="320" y="32" width="144" height="144" rx="36" ry="36" style="fill:#024"/><path d="M331.28027,64.32324a72.27408,72.27408,0,0,1,15.959-1.56006c10.19971,0,17.2793,2.3999,22.43945,7.19971,6.95947,6.23975,10.55957,16.91943,10.55957,32.63867,0,16.31934-4.2002,27.959-11.27979,34.19922-5.3999,5.2793-13.43945,7.79883-24.71924,7.79883a116.95027,116.95027,0,0,1-12.959-.83984Zm15.71924,67.19727a10.282,10.282,0,0,0,2.75977.24023c7.55957,0,14.15967-7.44043,14.15967-29.75879,0-16.55957-4.32031-26.63916-13.7998-26.63916a8.9208,8.9208,0,0,0-3.11963.35986Z" style="fill:#fff"/><path d="M439.6377,115.68164c-.35986-7.68018-.96-18.11963-.71973-26.75928h-.35986c-1.43994,8.63965-3.6001,18.59912-5.15967,24.83936l-6.96,28.918H415.27881l-6.71973-28.43848c-1.56006-6.47949-3.71973-16.55957-4.91943-25.31885h-.36035c-.23975,8.75928-.71973,18.959-1.19971,26.99854L400.75977,144H387.2002l5.87988-80.877h16.55908l6.48,29.2793c2.27979,10.19922,4.31934,19.19922,5.75977,28.31836h.23975c1.19971-8.99951,3-18.11914,5.15967-28.31836l6.35986-29.2793h16.55908L455.11719,144H441.07813Z" style="fill:#fff"/><path d="M33.856,160.57715h9.375v3.64746H38.04736v5.53564h4.86377V173.248H38.04736v8.89551H33.856Z"/><path d="M73.67725,170.97656c0,8.12744-2.87988,11.42285-6.97559,11.42285-4.89551,0-6.81543-5.18359-6.81543-11.103,0-5.8877,2.33594-10.9751,7.10352-10.9751C72.20557,160.32129,73.67725,166.04883,73.67725,170.97656Zm-9.439.38379c0,4.89551.92773,7.3916,2.62354,7.3916,1.75977,0,2.43164-3.19971,2.43164-7.5835,0-3.77588-.57568-7.19971-2.46338-7.19971C65.166,163.96875,64.23828,166.7207,64.23828,171.36035Z"/><path d="M94.93994,160.57715v14.01514c0,3.16748.96,4.12744,2.04785,4.12744,1.21582,0,2.08008-.86377,2.08008-4.12744V160.57715h4.19141V173.856c0,5.53564-2.07959,8.54346-6.23926,8.54346-4.51172,0-6.27148-3.10352-6.27148-8.51123v-13.311Z"/><path d="M121.41895,182.14355V160.57715h3.83984l3.32764,8.44727c.63965,1.66406,1.6958,4.44775,2.30371,6.30371h.064c-.12793-2.272-.416-6.01562-.416-9.9834v-4.76758h3.67969v21.56641h-3.83936l-3.2959-8.19141a61.7988,61.7988,0,0,1-2.17578-6.49561h-.064c.0957,2.17578.25586,5.50391.25586,9.82324v4.86377Z"/><path d="M152.47314,160.897a19.27854,19.27854,0,0,1,4.25537-.416c2.72021,0,4.60791.64014,5.98389,1.91992,1.856,1.66406,2.81592,4.51172,2.81592,8.70361,0,4.35156-1.12012,7.45508-3.00781,9.11914-1.43994,1.4082-3.584,2.08008-6.5918,2.08008a31.15375,31.15375,0,0,1-3.45557-.22412Zm4.19141,17.91895a2.74993,2.74993,0,0,0,.73633.064c2.01563,0,3.77539-1.98389,3.77539-7.93555,0-4.41553-1.15186-7.10352-3.67969-7.10352a2.37511,2.37511,0,0,0-.832.09619Z"/><path d="M185.63916,177.21582l-.96,4.92773h-4.064l4.67188-21.56641h5.02344l4.19189,21.56641h-4.064l-.92773-4.92773Zm3.48779-3.26367-.7041-4.51172c-.22412-1.312-.51221-3.45557-.7041-4.89551h-.0957c-.22412,1.43994-.54395,3.67969-.76807,4.92773l-.7998,4.47949Z"/><path d="M212.1499,164.44873H208.3418v-3.87158h11.83936v3.87158h-3.83984v17.69482H212.1499Z"/><path d="M241.12354,160.57715v21.56641h-4.19141V160.57715Z"/><path d="M272.145,170.97656c0,8.12744-2.87988,11.42285-6.97559,11.42285-4.89551,0-6.81543-5.18359-6.81543-11.103,0-5.8877,2.33594-10.9751,7.10352-10.9751C270.67334,160.32129,272.145,166.04883,272.145,170.97656Zm-9.439.38379c0,4.89551.92773,7.3916,2.62354,7.3916,1.75977,0,2.43164-3.19971,2.43164-7.5835,0-3.77588-.57568-7.19971-2.46338-7.19971C263.63379,163.96875,262.70605,166.7207,262.70605,171.36035Z"/><path d="M289.34424,182.14355V160.57715h3.83984l3.32764,8.44727c.63965,1.66406,1.6958,4.44775,2.30371,6.30371h.064c-.12793-2.272-.416-6.01562-.416-9.9834v-4.76758h3.67969v21.56641h-3.83936l-3.2959-8.19141a61.79875,61.79875,0,0,1-2.17578-6.49561h-.064c.0957,2.17578.25586,5.50391.25586,9.82324v4.86377Z"/></svg>